<svg width="147" height="19" viewBox="0 0 147 19" fill="none" xmlns="http://www.w3.org/2000/svg">
<g clip-path="url(#clip0_167_3799)">
<path d="M9.6186 2.875V0H2.91089H0V2.875V16.125V19H2.91089H9.6186V16.125H2.91089V2.875H9.6186Z" fill="#F7F7F8"/>
<path d="M12.5295 16.125V19H19.2372H22.1481V16.125V2.875V0H19.2372H12.5295V2.875H19.2372V16.125H12.5295Z" fill="#F7F7F8"/>
<path d="M16.3263 5.75H12.5295V8.625H16.3263V5.75Z" fill="#48D359"/>
<path d="M5.82178 5.75V8.59375H9.6186V16.125H12.5295V5.75H5.82178Z" fill="#F7F7F8"/>
<path d="M39.2654 5.84375H44.2012C45.8149 5.84375 46.9223 6.25 47.6184 6.96875C48.2195 7.5625 48.5676 8.34375 48.5676 9.375V9.40625C48.5676 11 47.7449 12 46.416 12.5625L48.884 16.1562H45.5618L43.4419 13.0312H43.4102H42.1763V16.1562H39.297L39.2654 5.84375ZM44.0747 10.7812C45.0555 10.7812 45.625 10.3125 45.625 9.5625V9.53125C45.625 8.71875 45.0239 8.3125 44.043 8.3125H42.1446V10.7812H44.0747Z" fill="#F7F7F8"/>
<path d="M51.605 5.84375H59.9897V8.28125H54.4843V9.84375H59.4834V12.0938H54.4843V13.7188H60.053V16.1562H51.605V5.84375Z" fill="#F7F7F8"/>
<path d="M63.217 5.84375H66.1278V16.1562H63.217V5.84375Z" fill="#F7F7F8"/>
<path d="M69.6399 5.84375H72.361L76.6324 11.2812V5.84375H79.5116V16.1562H76.9804L72.5508 10.5V16.1562H69.6715V5.84375H69.6399Z" fill="#F7F7F8"/>
<path d="M86.5674 5.78125H89.3517L93.7813 16.1563H90.6806L89.9212 14.3125H85.9029L85.1752 16.1563H82.1378L86.5674 5.78125ZM89.0986 12.0938L87.9279 9.15625L86.7572 12.0938H89.0986Z" fill="#F7F7F8"/>
<path d="M112.607 5.84375H120.992V8.28125H115.486V9.84375H120.486V12.0938H115.486V13.7188H121.087V16.1562H112.639V5.84375H112.607Z" fill="#F7F7F8"/>
<path d="M124.187 5.84375H129.535C130.832 5.84375 131.781 6.1875 132.382 6.78125C132.794 7.21875 133.047 7.75 133.047 8.4375C133.047 9.625 132.382 10.3438 131.433 10.75C132.699 11.1563 133.49 11.875 133.49 13.25V13.2813C133.49 15.0313 132.034 16.125 129.535 16.125H124.156L124.187 5.84375ZM128.839 9.96875C129.693 9.96875 130.199 9.65625 130.199 9.0625V9.03125C130.199 8.46875 129.756 8.125 128.902 8.125H127.035V9.9375H128.839V9.96875ZM129.25 13.875C130.104 13.875 130.642 13.5313 130.642 12.9062V12.875C130.642 12.3125 130.199 11.9375 129.25 11.9375H127.035V13.8438H129.25V13.875Z" fill="#F7F7F8"/>
<path d="M147.032 12.9062H136.464V15.7813H147.032V12.9062Z" fill="#48D359"/>
<path d="M37.0822 5.84375H33.2538H26.5461V8.71875H30.3429V16.125H33.2538V8.71875H37.0822V5.84375Z" fill="#F7F7F8"/>
<path d="M106.912 5.84375L105.077 11.8125L103.052 5.8125H100.552L98.5906 11.625L97.2934 7.6875L96.7238 5.84375H96.6922H93.718L97.1668 16.25H99.698L99.8879 15.5313H99.9195V15.5L101.755 10.3125L103.875 16.25H106.406L109.886 5.84375H106.912Z" fill="#F7F7F8"/>
</g>
<defs>
<clipPath id="clip0_167_3799">
<rect width="147" height="19" fill="white"/>
</clipPath>
</defs>
</svg>
